<mxfile host="Electron" modified="2023-06-19T17:13:49.186Z" agent="Mozilla/5.0 (Windows NT 10.0; Win64; x64) AppleWebKit/537.36 (KHTML, like Gecko) draw.io/21.4.0 Chrome/112.0.5615.204 Electron/24.5.1 Safari/537.36" etag="DPOU63fa3m0NzyzXcM-d" version="21.4.0" type="device">
  <diagram name="Page-1" id="TN5jjGIb1_J6kGVXwqvO">
    <mxGraphModel dx="3886" dy="1375" grid="0" gridSize="10" guides="1" tooltips="1" connect="1" arrows="1" fold="1" page="0" pageScale="1" pageWidth="850" pageHeight="1100" math="0" shadow="0">
      <root>
        <mxCell id="0" />
        <mxCell id="1" parent="0" />
        <mxCell id="JMd_AObMvht-CMJGGvs5-2" value="" style="shape=note;whiteSpace=wrap;html=1;backgroundOutline=1;fontColor=#000000;darkOpacity=0.05;fillColor=#FFF9B2;strokeColor=none;fillStyle=solid;direction=west;gradientDirection=north;gradientColor=#FFF2A1;shadow=1;size=20;pointerEvents=1;" parent="1" vertex="1">
          <mxGeometry x="-1819" y="-199" width="405" height="698" as="geometry" />
        </mxCell>
        <mxCell id="JMd_AObMvht-CMJGGvs5-3" value="" style="shape=note;whiteSpace=wrap;html=1;backgroundOutline=1;fontColor=#000000;darkOpacity=0.05;fillColor=#FFF9B2;strokeColor=none;fillStyle=solid;direction=west;gradientDirection=north;gradientColor=#FFF2A1;shadow=1;size=20;pointerEvents=1;" parent="1" vertex="1">
          <mxGeometry x="-707" y="-276" width="229" height="387" as="geometry" />
        </mxCell>
        <mxCell id="JMd_AObMvht-CMJGGvs5-4" value="" style="shape=note;whiteSpace=wrap;html=1;backgroundOutline=1;fontColor=#000000;darkOpacity=0.05;fillColor=#FFF9B2;strokeColor=none;fillStyle=solid;direction=west;gradientDirection=north;gradientColor=#FFF2A1;shadow=1;size=20;pointerEvents=1;fontStyle=1" parent="1" vertex="1">
          <mxGeometry x="-998" y="-276" width="235" height="383" as="geometry" />
        </mxCell>
        <mxCell id="JMd_AObMvht-CMJGGvs5-5" value="" style="shape=note;whiteSpace=wrap;html=1;backgroundOutline=1;fontColor=#000000;darkOpacity=0.05;fillColor=#FFF9B2;strokeColor=none;fillStyle=solid;direction=west;gradientDirection=north;gradientColor=#FFF2A1;shadow=1;size=20;pointerEvents=1;" parent="1" vertex="1">
          <mxGeometry x="-1286" y="-278" width="232" height="389" as="geometry" />
        </mxCell>
        <mxCell id="JMd_AObMvht-CMJGGvs5-8" value="&lt;b&gt;Project Requirements&lt;/b&gt;" style="text;strokeColor=none;fillColor=none;html=1;align=center;verticalAlign=middle;whiteSpace=wrap;rounded=0;" parent="1" vertex="1">
          <mxGeometry x="-1818" y="-229" width="128" height="29" as="geometry" />
        </mxCell>
        <mxCell id="JMd_AObMvht-CMJGGvs5-9" value="&lt;b&gt;Public End Points&lt;/b&gt;" style="text;strokeColor=none;fillColor=none;html=1;align=center;verticalAlign=middle;whiteSpace=wrap;rounded=0;" parent="1" vertex="1">
          <mxGeometry x="-1286" y="-324" width="130" height="30" as="geometry" />
        </mxCell>
        <mxCell id="JMd_AObMvht-CMJGGvs5-10" value="" style="shape=note;whiteSpace=wrap;html=1;backgroundOutline=1;fontColor=#000000;darkOpacity=0.05;fillColor=#FFF9B2;strokeColor=none;fillStyle=solid;direction=west;gradientDirection=north;gradientColor=#FFF2A1;shadow=1;size=20;pointerEvents=1;" parent="1" vertex="1">
          <mxGeometry x="-697" y="243" width="229" height="486" as="geometry" />
        </mxCell>
        <mxCell id="JMd_AObMvht-CMJGGvs5-11" value="" style="shape=note;whiteSpace=wrap;html=1;backgroundOutline=1;fontColor=#000000;darkOpacity=0.05;fillColor=#FFF9B2;strokeColor=none;fillStyle=solid;direction=west;gradientDirection=north;gradientColor=#FFF2A1;shadow=1;size=20;pointerEvents=1;" parent="1" vertex="1">
          <mxGeometry x="-988" y="243" width="235" height="483" as="geometry" />
        </mxCell>
        <mxCell id="JMd_AObMvht-CMJGGvs5-12" value="" style="shape=note;whiteSpace=wrap;html=1;backgroundOutline=1;fontColor=#000000;darkOpacity=0.05;fillColor=#FFF9B2;strokeColor=none;fillStyle=solid;direction=west;gradientDirection=north;gradientColor=#FFF2A1;shadow=1;size=20;pointerEvents=1;" parent="1" vertex="1">
          <mxGeometry x="-1276" y="243" width="232" height="480" as="geometry" />
        </mxCell>
        <mxCell id="JMd_AObMvht-CMJGGvs5-13" value="&lt;b&gt;Private End Points&lt;/b&gt;" style="text;strokeColor=none;fillColor=none;html=1;align=center;verticalAlign=middle;whiteSpace=wrap;rounded=0;" parent="1" vertex="1">
          <mxGeometry x="-1276" y="212" width="122" height="30" as="geometry" />
        </mxCell>
        <mxCell id="Q4bqfgXfLYudbw5vzhSS-1" value="&lt;b&gt;Payment Aplication&lt;/b&gt;" style="text;strokeColor=none;fillColor=none;html=1;align=center;verticalAlign=middle;whiteSpace=wrap;rounded=0;" vertex="1" parent="1">
          <mxGeometry x="-1704" y="-193" width="175" height="30" as="geometry" />
        </mxCell>
        <mxCell id="Q4bqfgXfLYudbw5vzhSS-2" value="1. Mobile Recharge&lt;br&gt;2. Electricity Bill Payment&lt;br&gt;3. UPI Payment" style="text;strokeColor=none;fillColor=none;html=1;align=left;verticalAlign=top;whiteSpace=wrap;rounded=0;sketch=1;curveFitting=1;jiggle=2;horizontal=1;" vertex="1" parent="1">
          <mxGeometry x="-1794" y="-158" width="343" height="215" as="geometry" />
        </mxCell>
        <mxCell id="Q4bqfgXfLYudbw5vzhSS-3" value="&lt;b&gt;Login System&lt;/b&gt;&lt;br&gt;&lt;br&gt;- paymaytrix/login/&lt;br&gt;- paymatrix/signup/" style="text;strokeColor=none;fillColor=none;html=1;align=center;verticalAlign=middle;whiteSpace=wrap;rounded=0;" vertex="1" parent="1">
          <mxGeometry x="-1286" y="-258" width="233" height="65" as="geometry" />
        </mxCell>
        <mxCell id="Q4bqfgXfLYudbw5vzhSS-4" value="&lt;b&gt;User Management&lt;br&gt;&lt;/b&gt;&lt;br&gt;- paymaytrix/user/" style="text;strokeColor=none;fillColor=none;html=1;align=center;verticalAlign=middle;whiteSpace=wrap;rounded=0;" vertex="1" parent="1">
          <mxGeometry x="-1281" y="-187" width="228" height="99" as="geometry" />
        </mxCell>
        <mxCell id="Q4bqfgXfLYudbw5vzhSS-5" value="&lt;b&gt;User Management&lt;br&gt;&lt;/b&gt;&lt;br&gt;- paymaytrix/user/&lt;br&gt;- paymaytrix/deleteUser/&lt;br&gt;- - paymaytrix/addUser" style="text;strokeColor=none;fillColor=none;html=1;align=center;verticalAlign=middle;whiteSpace=wrap;rounded=0;" vertex="1" parent="1">
          <mxGeometry x="-1272" y="246" width="228" height="99" as="geometry" />
        </mxCell>
        <mxCell id="Q4bqfgXfLYudbw5vzhSS-6" value="&lt;b&gt;Bill Management&lt;br&gt;&lt;/b&gt;&lt;br&gt;- paymaytrix/addBill/{type}&lt;br&gt;- paymaytrix/addBill/{type}/fetch&lt;br&gt;" style="text;strokeColor=none;fillColor=none;html=1;align=center;verticalAlign=middle;whiteSpace=wrap;rounded=0;" vertex="1" parent="1">
          <mxGeometry x="-996.75" y="-261" width="232.5" height="70" as="geometry" />
        </mxCell>
        <mxCell id="Q4bqfgXfLYudbw5vzhSS-7" value="&lt;b&gt;Bill Management&lt;br&gt;&lt;/b&gt;&lt;br&gt;- paymaytrix/addBillType&lt;br&gt;- paymaytrix/removeBillType" style="text;strokeColor=none;fillColor=none;html=1;align=center;verticalAlign=middle;whiteSpace=wrap;rounded=0;" vertex="1" parent="1">
          <mxGeometry x="-986.75" y="246" width="232.5" height="99" as="geometry" />
        </mxCell>
        <mxCell id="Q4bqfgXfLYudbw5vzhSS-8" value="&lt;b&gt;Electricity Bill&lt;br&gt;&lt;/b&gt;.&lt;br&gt;- paymaytrix/addBill/electrity/&lt;br&gt;{electricityBoard}&lt;br&gt;- paymaytrix/addBill/electrity/&lt;br&gt;electricityBoard/{CANumber}&lt;br&gt;&lt;br&gt;- paymaytrix/removeBill/electrity/&lt;br&gt;{electricityBoard}&lt;br&gt;&lt;br style=&quot;border-color: var(--border-color);&quot;&gt;- paymaytrix/removeBill/electrity/&lt;br style=&quot;border-color: var(--border-color);&quot;&gt;electricityBoard/{CANumber}" style="text;strokeColor=none;fillColor=none;html=1;align=center;verticalAlign=middle;whiteSpace=wrap;rounded=0;" vertex="1" parent="1">
          <mxGeometry x="-998.38" y="-126" width="235.75" height="177" as="geometry" />
        </mxCell>
        <mxCell id="Q4bqfgXfLYudbw5vzhSS-11" value="&lt;b&gt;Electricity Usage Monitoring&lt;br&gt;&lt;/b&gt;&lt;br&gt;- paymaytrix/{eletricityID}/getDaily&lt;br&gt;- paymaytrix/{eletricityID}/getmonthly&lt;br&gt;- paymaytrix/{eletricityID}/getYearly" style="text;strokeColor=none;fillColor=none;html=1;align=center;verticalAlign=middle;whiteSpace=wrap;rounded=0;" vertex="1" parent="1">
          <mxGeometry x="-704" y="-266" width="228" height="103" as="geometry" />
        </mxCell>
        <mxCell id="Q4bqfgXfLYudbw5vzhSS-12" value="&lt;b&gt;Bill Generation&lt;br&gt;&lt;/b&gt;&lt;br&gt;- paymaytrix/{eletricityID}/&lt;br&gt;- paymaytrix/{eletricityID}/getmonthly&lt;br&gt;- paymaytrix/{eletricityID}/getYearly" style="text;strokeColor=none;fillColor=none;html=1;align=center;verticalAlign=middle;whiteSpace=wrap;rounded=0;" vertex="1" parent="1">
          <mxGeometry x="-706.5" y="-158" width="228" height="103" as="geometry" />
        </mxCell>
      </root>
    </mxGraphModel>
  </diagram>
</mxfile>
